External Loads File
version=1
nRows=38
nColumns=13
Range=5.000000e-03-10 seconds
endheader
time 	forceRightX 	forceRightY 	forceRightZ 	pointRightX 	pointRightY 	pointRightZ 	forceLeftX 	forceLeftY 	forceLeftZ 	pointLeftX 	pointLeftY 	pointLeftZ 		
2.505000 18.958172 166.614056 -0.000000 0.128865 0.159474 -0.101531 -7.994861 307.441548 -0.000000 0.239816 0.476143 -0.345566
2.510000 16.429937 107.421009 -0.000000 0.125230 0.161595 -0.101214 -7.436119 328.765061 -0.000000 0.242299 0.473989 -0.345806
2.515000 16.169244 53.325473 -0.000000 0.121549 0.163688 -0.101075 -7.387284 350.819416 -0.000000 0.244545 0.471961 -0.346046
2.520000 18.510566 3.889488 -0.000000 0.117524 0.165700 -0.100853 -7.363661 373.020879 -0.000000 0.246425 0.469953 -0.346507
2.525000 23.335250 -42.023963 -0.000000 0.113091 0.168591 -0.100617 -6.338703 395.012350 -0.000000 0.248318 0.467740 -0.346670
2.530000 29.941297 -85.788309 -0.000000 0.108393 0.171760 -0.100395 -4.850942 416.712045 -0.000000 0.250326 0.465553 -0.346842
2.535000 37.483690 -128.378911 -0.000000 0.103768 0.174129 -0.100329 -4.195816 438.154104 -0.000000 0.252369 0.463254 -0.347197
2.540000 44.384791 -170.097280 -0.000000 0.099281 0.177110 -0.100356 -3.492954 459.331814 -0.000000 0.254579 0.460609 -0.347354
2.545000 49.709607 -210.131166 -0.000000 0.095302 0.180296 -0.100447 -3.839369 480.086255 -0.000000 0.256762 0.457945 -0.347528
2.550000 52.965248 -247.013657 -0.000000 0.091907 0.183041 -0.100513 -5.933509 500.145989 -0.000000 0.258876 0.455411 -0.347784
2.555000 53.348252 -279.335655 -0.000000 0.088891 0.185906 -0.100613 -8.723593 519.222622 -0.000000 0.260908 0.452656 -0.347816
2.560000 51.099377 -305.958395 -0.000000 0.086196 0.188466 -0.100747 -12.399589 537.077460 -0.000000 0.263024 0.449954 -0.347915
2.565000 46.558455 -326.483613 -0.000000 0.083670 0.191055 -0.100734 -16.605660 553.590326 -0.000000 0.264974 0.447140 -0.347984
2.570000 40.153801 -341.183546 -0.000000 0.081194 0.193631 -0.100783 -20.847194 568.769199 -0.000000 0.267062 0.444247 -0.348180
2.575000 32.529968 -350.736794 -0.000000 0.078699 0.196487 -0.100906 -24.964774 582.692622 -0.000000 0.269193 0.441354 -0.348182
2.580000 24.281466 -355.997226 -0.000000 0.076209 0.199545 -0.100983 -28.877649 595.451008 -0.000000 0.271271 0.438229 -0.348166
2.585000 16.209825 -357.800694 -0.000000 0.073715 0.202513 -0.101174 -33.164017 607.104272 -0.000000 0.273300 0.435106 -0.348292
2.590000 8.385662 -356.931479 -0.000000 0.071289 0.205555 -0.101318 -37.546870 617.782931 -0.000000 0.275311 0.431876 -0.348344
2.595000 0.756645 -354.012283 -0.000000 0.068983 0.208678 -0.101425 -41.799620 627.640408 -0.000000 0.277422 0.428469 -0.348490
2.600000 -6.793925 -349.498857 -0.000000 0.066691 0.211964 -0.101639 -45.674523 636.815779 -0.000000 0.279697 0.424963 -0.348545
2.605000 -13.627499 -343.736917 -0.000000 0.064500 0.215234 -0.101792 -50.335805 645.322255 -0.000000 0.281668 0.421465 -0.348605
2.610000 -19.947287 -336.985013 -0.000000 0.062466 0.218473 -0.101918 -55.489614 653.279305 -0.000000 0.283685 0.418000 -0.348831
2.615000 -26.313146 -329.403542 -0.000000 0.060494 0.221919 -0.102048 -60.096523 660.911863 -0.000000 0.285848 0.414247 -0.348611
2.620000 -32.142334 -321.188036 -0.000000 0.058563 0.225360 -0.102250 -65.311702 668.282014 -0.000000 0.287872 0.410487 -0.348562
2.625000 -37.542795 -312.475436 -0.000000 0.056834 0.228906 -0.102266 -70.941328 675.571511 -0.000000 0.289933 0.406721 -0.348382
2.630000 -42.606601 -303.379807 -0.000000 0.055101 0.232497 -0.102329 -76.764910 682.956908 -0.000000 0.291864 0.402822 -0.348396
2.635000 -47.438231 -293.989517 -0.000000 0.053391 0.236153 -0.102387 -82.469599 690.601437 -0.000000 0.293803 0.398760 -0.348386
2.640000 -51.898015 -284.409329 -0.000000 0.051856 0.239953 -0.102447 -88.303438 698.581637 -0.000000 0.295739 0.394699 -0.348564
2.645000 -55.809162 -274.738944 -0.000000 0.050274 0.243683 -0.102520 -94.703455 706.928830 -0.000000 0.297476 0.390677 -0.348579
2.650000 -59.637010 -264.926378 -0.000000 0.048726 0.247612 -0.102574 -100.458476 715.864402 -0.000000 0.299215 0.386470 -0.348615
2.655000 -63.052744 -255.077704 -0.000000 0.047375 0.251508 -0.102623 -106.313609 725.302089 -0.000000 0.300942 0.382151 -0.348628
2.660000 -66.102487 -245.258715 -0.000000 0.046072 0.255556 -0.102711 -112.034497 735.242899 -0.000000 0.302494 0.377855 -0.348734
2.665000 -68.905000 -235.540888 -0.000000 0.044817 0.259758 -0.102829 -117.125368 745.707111 -0.000000 0.304050 0.373510 -0.348783
2.670000 -71.439282 -226.031915 -0.000000 0.043717 0.263906 -0.102817 -121.475826 756.630037 -0.000000 0.305678 0.368906 -0.348589
2.675000 -73.513486 -216.860531 -0.000000 0.042737 0.268214 -0.102865 -125.596838 767.809438 -0.000000 0.306991 0.364395 -0.348748
2.680000 -75.086504 -208.043263 -0.000000 0.041785 0.272437 -0.102859 -129.621550 779.083595 -0.000000 0.308348 0.359955 -0.348817
2.685000 -76.441918 -199.406104 -0.000000 0.040920 0.276859 -0.102821 -132.493411 790.507034 -0.000000 0.309457 0.355322 -0.349403
2.690000 -77.375074 -190.923871 -0.000000 0.040229 0.281297 -0.102708 -134.961976 801.860564 -0.000000 0.310702 0.350653 -0.349100
